<svg xmlns="http://www.w3.org/2000/svg" width="780" height="470" viewBox="0 0 780 470" font-family="system-ui,Segoe UI,Arial,sans-serif">
<rect width="780" height="470" fill="#ffffff"/>
<text x="72" y="27" font-size="17" font-weight="700" fill="#0f172a">Sky130 INT8 PIM — Pareto Frontier (4 verified + analog CIM projected)</text>
<rect x="72" y="48" width="648" height="364" fill="#f8fafc" stroke="#cbd5e1"/>
<line x1="72.0" y1="48" x2="72.0" y2="412" stroke="#eef2f7"/>
<text x="72.0" y="429" font-size="11" fill="#475569" text-anchor="middle">0.5</text>
<line x1="133.8" y1="48" x2="133.8" y2="412" stroke="#eef2f7"/>
<text x="133.8" y="429" font-size="11" fill="#475569" text-anchor="middle">0.602</text>
<line x1="302.8" y1="48" x2="302.8" y2="412" stroke="#eef2f7"/>
<text x="302.8" y="429" font-size="11" fill="#475569" text-anchor="middle">1</text>
<line x1="533.6" y1="48" x2="533.6" y2="412" stroke="#eef2f7"/>
<text x="533.6" y="429" font-size="11" fill="#475569" text-anchor="middle">2</text>
<line x1="659.7" y1="48" x2="659.7" y2="412" stroke="#eef2f7"/>
<text x="659.7" y="429" font-size="11" fill="#475569" text-anchor="middle">2.92</text>
<line x1="72" y1="370.0" x2="720" y2="370.0" stroke="#eef2f7"/>
<text x="63" y="374.0" font-size="11" fill="#475569" text-anchor="end">0.5</text>
<line x1="72" y1="312.9" x2="720" y2="312.9" stroke="#eef2f7"/>
<text x="63" y="316.9" font-size="11" fill="#475569" text-anchor="end">1</text>
<line x1="72" y1="255.9" x2="720" y2="255.9" stroke="#eef2f7"/>
<text x="63" y="259.9" font-size="11" fill="#475569" text-anchor="end">2</text>
<line x1="72" y1="180.5" x2="720" y2="180.5" stroke="#eef2f7"/>
<text x="63" y="184.5" font-size="11" fill="#475569" text-anchor="end">5</text>
<line x1="72" y1="123.4" x2="720" y2="123.4" stroke="#eef2f7"/>
<text x="63" y="127.4" font-size="11" fill="#475569" text-anchor="end">10</text>
<line x1="72" y1="66.4" x2="720" y2="66.4" stroke="#eef2f7"/>
<text x="63" y="70.4" font-size="11" fill="#475569" text-anchor="end">20</text>
<text x="396" y="456" font-size="13" fill="#0f172a" text-anchor="middle">die area (mm²) — smaller is better →</text>
<text x="20" y="230" font-size="13" fill="#0f172a" text-anchor="middle" transform="rotate(-90 20 230)">pJ / MAC — lower is better ↓</text>
<circle cx="659.7" cy="254.2" r="6" fill="#2563eb" stroke="#ffffff" stroke-width="1.6"/>
<text x="647.7" y="258.2" font-size="11.5" fill="#0f172a" text-anchor="end">Flop baseline (2.04 pJ, 51.2 GOPS)</text>
<circle cx="659.7" cy="292.6" r="9" fill="#2563eb" stroke="#ffffff" stroke-width="1.6"/>
<text x="644.7" y="296.6" font-size="11.5" fill="#0f172a" text-anchor="end">Clock-gated ★ (1.28 pJ, 51.2 GOPS)</text>
<circle cx="133.8" cy="111.5" r="6" fill="#059669" stroke="#ffffff" stroke-width="1.6"/>
<text x="145.8" y="115.5" font-size="11.5" fill="#0f172a" text-anchor="start">Batched near-memory (11.56 pJ, 3.2 GOPS)</text>
<circle cx="133.8" cy="70.7" r="6" fill="#059669" stroke="#ffffff" stroke-width="1.6"/>
<text x="145.8" y="74.7" font-size="11.5" fill="#0f172a" text-anchor="start">Streaming near-memory (18.98 pJ, 0.8 GOPS)</text>
<polygon points="132.7,383.0 142.7,393.0 132.7,403.0 122.7,393.0" fill="#d97706" stroke="#7c2d12" stroke-width="1.4" stroke-dasharray="3 2"/>
<text x="147.7" y="397.0" font-size="11.5" fill="#0f172a" text-anchor="start">Charge-domain CIM (0.378 pJ INT8 · 5.9 fJ binary · projected)</text>
<text x="716" y="64" font-size="11" fill="#64748b" text-anchor="end">blue=parallel · green=near-memory SRAM · ◆amber=charge-domain CIM (projected)</text>
<text x="716" y="80" font-size="10.5" fill="#94a3b8" text-anchor="end">analog energy from extracted caps (M10) + measured StrongARM; area estimated</text>
</svg>